<svg width="32" height="38" viewBox="0 0 32 38" fill="none" xmlns="http://www.w3.org/2000/svg">
<path d="M4.40332 0.438477C4.2959 0.487305 4.13965 0.604493 4.05176 0.692383C3.73926 1.02441 3.74415 0.960938 3.74415 3.76367V6.30273H5.18946H6.62989L6.8545 6.1709C7.03516 6.06836 7.14258 6.03906 7.37696 6.03906C7.71387 6.04395 7.89454 6.11719 8.11914 6.36133C8.34864 6.60059 8.40235 6.73242 8.40235 7.06445C8.40235 7.45508 8.23145 7.75781 7.9043 7.94824C7.60157 8.12891 7.18165 8.13867 6.90332 7.97266C6.72266 7.86524 6.6836 7.86524 5.22852 7.86524H3.74415V11.0879V14.3105H5.18946H6.62989L6.85938 14.1738C7.04493 14.0664 7.14747 14.042 7.38184 14.0469C7.80176 14.0518 8.12891 14.252 8.32422 14.6279C8.45118 14.8721 8.42676 15.3262 8.27051 15.5947C7.99707 16.0586 7.34766 16.2441 6.90332 15.9805C6.72266 15.873 6.6836 15.873 5.22852 15.873H3.74415V19.0957V22.3184H5.18946H6.62989L6.83497 22.2012C7.79688 21.6348 8.84668 22.7236 8.23145 23.6514C8.03614 23.9492 7.74805 24.1006 7.38184 24.1006C7.167 24.1006 7.04004 24.0713 6.90332 23.9883C6.72266 23.8809 6.6836 23.8809 5.22852 23.8809H3.74415V27.1035V30.3262H5.18946H6.62989L6.85938 30.1943C7.04493 30.0869 7.14747 30.0576 7.38184 30.0576C7.79688 30.0625 8.12403 30.2676 8.32422 30.6436C8.42188 30.834 8.42188 31.332 8.32422 31.5225C8.22657 31.7129 8.01172 31.9229 7.82129 32.0254C7.59668 32.1475 7.13282 32.1328 6.90332 31.9961C6.72266 31.8887 6.6836 31.8887 5.22852 31.8887H3.74415V34.4033C3.74415 37.1768 3.73926 37.1182 4.05176 37.4502C4.13965 37.5381 4.2959 37.6553 4.40332 37.7041C4.59375 37.792 5.03321 37.7969 17.4453 37.7969H30.2871L30.541 37.6699C30.8486 37.5186 31.0635 37.2354 31.1367 36.8984C31.1709 36.7275 31.1807 31.21 31.1758 18.9248L31.1611 1.2002L31.0098 0.931641C30.9023 0.746094 30.7852 0.619141 30.624 0.516602L30.3897 0.370118L17.4941 0.360352C5.01368 0.345704 4.59375 0.350587 4.40332 0.438477ZM19.7109 12.4844C20.5996 12.6846 21.3857 13.2949 21.7617 14.0713C22.0449 14.667 22.1182 15.0674 22.0889 15.8975C22.0596 16.6543 21.9473 17.1475 21.6445 17.8018C21.2002 18.7637 20.4482 19.5156 19.6279 19.8281C19.2764 19.9648 18.6221 20.0088 18.2315 19.9258C17.582 19.7939 16.8545 19.291 16.3613 18.6416C16.0732 18.2607 15.6973 17.4795 15.5606 16.9863C15.3457 16.1904 15.3555 15.1064 15.585 14.4424C15.9756 13.3193 16.9619 12.5625 18.2363 12.4063C18.6416 12.3574 19.291 12.3916 19.7109 12.4844ZM17.2012 20.3652C17.8408 20.7705 18.6123 20.9268 19.2715 20.7852C19.6133 20.7119 20.1211 20.4922 20.4873 20.2578C20.6436 20.1602 20.668 20.1553 21.2246 20.209C21.9473 20.2822 22.5381 20.4531 23.1338 20.7607C24.2422 21.3418 25.0527 22.3184 25.3262 23.4121C25.4092 23.7344 25.4238 23.9639 25.4238 24.7939V25.7852H18.7588H12.0938V24.7695C12.0938 23.627 12.1523 23.2705 12.4356 22.7041C13.1973 21.1904 14.8037 20.2334 16.6787 20.1748C16.8496 20.1699 16.9522 20.209 17.2012 20.3652Z" fill="black"/>
<path d="M17.289 14.4191C17.0937 14.8146 16.8447 15.0734 16.4931 15.2589C16.3027 15.3566 16.1074 15.4933 16.0634 15.5617C15.9023 15.8107 16 16.5724 16.2978 17.339C16.6054 18.1398 17.25 18.8917 17.8896 19.1994C18.3291 19.4093 18.9443 19.4533 19.3789 19.297C20.1113 19.0431 20.7656 18.3693 21.205 17.4123C21.5371 16.6945 21.6103 15.8839 21.3857 15.381C21.1611 14.8927 20.9316 14.8 19.7646 14.7462C18.6123 14.6925 17.9775 14.5753 17.5039 14.3312C17.3769 14.2628 17.3672 14.2677 17.289 14.4191Z" fill="black"/>
<path d="M0.863281 7.08594V7.47656H3.96387H7.06934L7.18652 7.35449C7.26465 7.28125 7.30859 7.17871 7.30859 7.08594C7.30859 6.99316 7.26465 6.89062 7.18652 6.81738L7.06934 6.69531H3.96387H0.863281V7.08594Z" fill="black"/>
<path d="M0.863281 15.0936V15.4842H3.95898C7.42578 15.4842 7.23047 15.5037 7.28906 15.1326C7.31348 14.9862 7.29883 14.9324 7.19629 14.8299L7.06934 14.7029H3.96387H0.863281V15.0936Z" fill="black"/>
<path d="M0.863281 23.1014V23.492H3.95898C7.42578 23.492 7.23047 23.5115 7.28906 23.1404C7.31348 22.994 7.29883 22.9403 7.19629 22.8377L7.06934 22.7108H3.96387H0.863281V23.1014Z" fill="black"/>
<path d="M0.863281 31.1092V31.4998H3.95898C7.42578 31.4998 7.23047 31.5194 7.28906 31.1483C7.31348 31.0018 7.29883 30.9481 7.19629 30.8455L7.06934 30.7186H3.96387H0.863281V31.1092Z" fill="black"/>
</svg>
