<svg width="22" height="21" viewBox="0 0 22 21" fill="none" xmlns="http://www.w3.org/2000/svg">
<g clip-path="url(#clip0_215_10483)">
<path fill-rule="evenodd" clip-rule="evenodd" d="M6 1.5C3.29818 1.5 1.5 3.52613 1.5 6.06667C1.5 7.39664 1.70502 8.39268 2.31535 9.5274C2.94032 10.6894 3.99669 12.0097 5.74762 13.9666C6.48651 14.7924 7.88249 16.2073 9.10307 17.4246C9.71141 18.0313 10.2731 18.5858 10.6826 18.9886C10.8023 19.1063 10.909 19.2111 11 19.3004C11.091 19.2111 11.1977 19.1063 11.3174 18.9886C11.7269 18.5858 12.2886 18.0313 12.8969 17.4246C14.1175 16.2073 15.5135 14.7924 16.2524 13.9666C18.0033 12.0097 19.0597 10.6894 19.6847 9.5274C20.295 8.39268 20.5 7.39664 20.5 6.06667C20.5 3.52613 18.7018 1.5 16 1.5C13.771 1.5 12.4018 2.97895 11.4294 4.60908L11 5.32897L10.5706 4.60908C9.59823 2.97895 8.22897 1.5 6 1.5ZM11 20L10.6508 20.3579L10.47 20.1811C10.3541 20.0676 10.1868 19.9036 9.98142 19.7016C9.5707 19.2976 9.00734 18.7414 8.39693 18.1327C7.18001 16.9191 5.76349 15.484 5.00239 14.6334C3.25331 12.6786 2.12218 11.2794 1.43465 10.0011C0.732484 8.69562 0.5 7.53084 0.5 6.06667C0.5 3.01897 2.70182 0.5 6 0.5C8.41322 0.5 9.96162 1.92128 11 3.42622C12.0384 1.92128 13.5868 0.5 16 0.5C19.2982 0.5 21.5 3.01897 21.5 6.06667C21.5 7.53084 21.2675 8.69562 20.5653 10.0011C19.8778 11.2794 18.7467 12.6786 16.9976 14.6334C16.2365 15.484 14.82 16.9191 13.6031 18.1327C12.9927 18.7414 12.4293 19.2976 12.0186 19.7016C11.8132 19.9036 11.6459 20.0676 11.53 20.1811L11.3492 20.3579L11 20ZM11 20L11.3492 20.3579L11 20.6985L10.6508 20.3579L11 20Z" fill="#222222"/>
</g>
<defs>
<clipPath id="clip0_215_10483">
<rect width="22" height="21" fill="white"/>
</clipPath>
</defs>
</svg>
