<svg width="40" height="37" viewBox="0 0 40 37" fill="none" xmlns="http://www.w3.org/2000/svg">
<path d="M20.3816 9.56934C14.8836 9.56934 10.3281 13.6941 10.3281 18.8321C10.3281 23.97 14.805 28.0948 20.3816 28.0948C25.9581 28.0948 30.435 23.8976 30.435 18.8321C30.435 13.7665 25.8795 9.56934 20.3816 9.56934ZM20.3816 24.766C16.8472 24.766 13.9411 22.0885 13.9411 18.8321C13.9411 15.5756 16.8472 12.8981 20.3816 12.8981C23.916 12.8981 26.8221 15.5756 26.8221 18.8321C26.8221 22.0885 23.916 24.766 20.3816 24.766Z" fill="black"/>
<path d="M30.8187 11.4579C32.0767 11.4579 33.0965 10.5183 33.0965 9.35933C33.0965 8.20031 32.0767 7.26074 30.8187 7.26074C29.5608 7.26074 28.541 8.20031 28.541 9.35933C28.541 10.5183 29.5608 11.4579 30.8187 11.4579Z" fill="black"/>
<path d="M36.7197 3.92497C34.6776 1.97112 31.7715 0.958008 28.4727 0.958008H12.293C5.45976 0.958008 0.904297 5.15518 0.904297 11.4509V26.2858C0.904297 29.3975 2.00389 32.075 4.20308 34.0288C6.32373 35.9103 9.15126 36.8511 12.3715 36.8511H28.3942C31.7715 36.8511 34.599 35.8379 36.6411 34.0288C38.7618 32.1473 39.8614 29.4698 39.8614 26.3581V11.4509C39.8614 8.4116 38.7618 5.80646 36.7197 3.92497ZM36.4055 26.3581C36.4055 28.6014 35.5415 30.4106 34.1278 31.6408C32.714 32.871 30.7504 33.5223 28.3942 33.5223H12.3715C10.0152 33.5223 8.05166 32.871 6.6379 31.6408C5.22413 30.3382 4.51725 28.5291 4.51725 26.2858V11.4509C4.51725 9.27998 5.22413 7.47086 6.6379 6.16829C7.97312 4.93808 10.0152 4.2868 12.3715 4.2868H28.5513C30.9075 4.2868 32.8711 4.93808 34.2849 6.24065C35.6201 7.54322 36.4055 9.35235 36.4055 11.4509V26.3581Z" fill="black"/>
</svg>
