<svg width="11" height="14" viewBox="0 0 11 14" fill="none" xmlns="http://www.w3.org/2000/svg">
<g clip-path="url(#clip0_215_10476)">
<path fill-rule="evenodd" clip-rule="evenodd" d="M5.89836 10.4767C6.99887 9.88046 10 7.97217 10 4.89258C10 2.4073 7.98528 0.392578 5.5 0.392578C3.01472 0.392578 1 2.4073 1 4.89258C1 7.97217 4.00113 9.88046 5.10164 10.4767C5.3521 10.6124 5.6479 10.6124 5.89836 10.4767ZM5.5 6.82122C6.56512 6.82122 7.42857 5.95777 7.42857 4.89265C7.42857 3.82753 6.56512 2.96408 5.5 2.96408C4.43488 2.96408 3.57143 3.82753 3.57143 4.89265C3.57143 5.95777 4.43488 6.82122 5.5 6.82122Z" fill="#F03A3A"/>
<path d="M2.02349 10.6792C2.05308 10.6421 2.10683 10.5862 2.19897 10.5178C2.21358 10.507 2.2278 10.4958 2.24165 10.4843L2.40582 9.11883L1.00681 8.91198C0.478872 9.30391 0 9.89874 0 10.6792C0 11.4596 0.478945 12.0546 1.00695 12.4465C1.54363 12.8448 2.24849 13.1317 3.0099 13.3202C3.78132 13.511 4.63874 13.6077 5.5 13.6077C6.36127 13.6077 7.21881 13.5109 7.99023 13.3201C8.75164 13.1317 9.45649 12.8447 9.99317 12.4465C10.5212 12.0545 11 11.4596 11 10.6792C11 9.89874 10.5211 9.30391 9.99319 8.91198C9.54974 8.58277 8.92339 8.67539 8.59418 9.11883L8.80103 10.5178C8.89317 10.5862 8.94692 10.6421 8.97651 10.6792C8.94693 10.7163 8.89322 10.7721 8.80117 10.8405C8.54795 11.0284 8.1165 11.2285 7.5099 11.3787C6.91317 11.5262 6.21852 11.6077 5.5 11.6077C4.78149 11.6077 4.08683 11.5262 3.4901 11.3787C2.8835 11.2285 2.45204 11.0284 2.19883 10.8405C2.10678 10.7721 2.05307 10.7163 2.02349 10.6792Z" fill="#F03A3A"/>
<path d="M8.59418 9.11883C8.26498 9.56227 8.35759 10.1886 8.80103 10.5178L8.59418 9.11883Z" fill="#F03A3A"/>
<path d="M2.40582 9.11883C2.72418 9.54767 2.64806 10.1476 2.24165 10.4843L2.40582 9.11883Z" fill="#F03A3A"/>
<path d="M2.2422 8.94566C1.89573 8.65724 1.38482 8.63136 1.00681 8.91198L2.2422 8.94566Z" fill="#F03A3A"/>
<path d="M1.00681 8.91198L2.40582 9.11883C2.35724 9.05339 2.30218 8.99559 2.2422 8.94566L1.00681 8.91198Z" fill="#F03A3A"/>
<path d="M3.4901 11.3787C2.8835 11.2285 2.45204 11.0284 2.19883 10.8405L3.4901 11.3787Z" fill="#F03A3A"/>
<path d="M8.80117 10.8405C8.54795 11.0284 8.1165 11.2285 7.5099 11.3787L8.80117 10.8405Z" fill="#F03A3A"/>
</g>
<defs>
<clipPath id="clip0_215_10476">
<rect width="11" height="14" fill="white"/>
</clipPath>
</defs>
</svg>
