<svg width="16" height="20" viewBox="0 0 16 20" fill="none" xmlns="http://www.w3.org/2000/svg">
<g clip-path="url(#clip0_211_10488)">
<path d="M9.94449 6.91014C9.36892 7.29473 8.69223 7.5 8 7.5C7.07174 7.5 6.1815 7.13125 5.52513 6.47487C4.86875 5.8185 4.5 4.92826 4.5 4C4.5 3.30777 4.70527 2.63108 5.08986 2.05551C5.47444 1.47993 6.02107 1.03133 6.66061 0.766423C7.30015 0.501517 8.00388 0.432205 8.68282 0.567253C9.36175 0.702302 9.98539 1.03564 10.4749 1.52513C10.9644 2.01461 11.2977 2.63825 11.4327 3.31718C11.5678 3.99612 11.4985 4.69985 11.2336 5.33939C10.9687 5.97893 10.5201 6.52556 9.94449 6.91014Z" fill="#222222"/>
<path fill-rule="evenodd" clip-rule="evenodd" d="M8.58528 1.05765C8.00333 0.94189 7.40013 1.0013 6.85195 1.22836L6.66061 0.766423L6.85195 1.22836C6.30377 1.45543 5.83523 1.83994 5.5056 2.33329L5.50559 2.3333C5.17595 2.82664 5 3.40666 5 4C5 4.79565 5.31607 5.55871 5.87868 6.12131L5.87869 6.12132C6.44129 6.68393 7.20435 7 8 7C8.59334 7 9.17336 6.82405 9.6667 6.49441L9.66672 6.4944C10.1601 6.16476 10.5446 5.69623 10.7717 5.14805C10.9987 4.59988 11.0581 3.99669 10.9423 3.41476L10.9423 3.41469C10.8266 2.83276 10.5409 2.29823 10.1214 1.87869C9.70177 1.45912 9.16721 1.1734 8.58528 1.05765ZM8.78036 0.0768602L8.68282 0.567253L8.78037 0.0768606C9.55629 0.231202 10.269 0.61216 10.8284 1.17157C11.3879 1.73099 11.7688 2.44374 11.9231 3.21967C12.0775 3.99559 11.9983 4.79984 11.6955 5.53073C11.3928 6.26163 10.8801 6.88635 10.2223 7.32587C9.56448 7.76541 8.79112 8 8 8C6.93913 8 5.92171 7.57857 5.17157 6.82842C4.42143 6.07828 4 5.06087 4 4C4 3.20888 4.23459 2.43552 4.67413 1.77772L5.08952 2.05528L4.67413 1.77772C5.11365 1.11991 5.73837 0.607233 6.46927 0.304484L6.64574 0.730513L6.46927 0.304483C7.20017 0.00173336 8.00443 -0.07748 8.78036 0.0768602Z" fill="#222222"/>
<path d="M15.3145 19.3142C15.1945 19.4323 15.0302 19.5 14.8571 19.5H1.14286C0.969841 19.5 0.805469 19.4323 0.685494 19.3142C0.565785 19.1963 0.5 19.0382 0.5 18.875C0.5 16.9216 1.28823 15.0466 2.6939 13.6629C4.09984 12.2789 6.00836 11.5 8 11.5C9.99164 11.5 11.9002 12.2789 13.3061 13.6629C14.7118 15.0466 15.5 16.9216 15.5 18.875C15.5 19.0382 15.4342 19.1963 15.3145 19.3142Z" fill="#222222"/>
<path fill-rule="evenodd" clip-rule="evenodd" d="M8 12C6.13846 12 4.35625 12.7281 3.04466 14.0192L3.04466 14.0192C1.73361 15.3098 1 17.0568 1 18.875C1 18.903 1.01117 18.9332 1.03635 18.958C1.06196 18.9831 1.09998 19 1.14286 19H14.8571C14.9001 19 14.9381 18.9831 14.9638 18.9578C14.9889 18.933 15 18.903 15 18.875C15 17.0568 14.2664 15.3098 12.9553 14.0192L12.9553 14.0192C11.6438 12.7281 9.86155 12 8 12ZM2.34314 13.3066C3.84343 11.8297 5.87826 11 8 11C10.1217 11 12.1566 11.8297 13.6569 13.3066C15.1572 14.7834 16 16.7864 16 18.875C16 19.1734 15.8796 19.4594 15.6654 19.6704L15.6652 19.6706C15.4509 19.8815 15.1603 20 14.8571 20H1.14286C0.839758 20 0.549067 19.8815 0.334736 19.6705L0.334643 19.6704C0.120397 19.4594 0 19.1734 0 18.875C0 16.7864 0.842846 14.7834 2.34314 13.3066ZM2.34314 13.3066L2.6939 13.6629L2.34314 13.3066Z" fill="#222222"/>
</g>
<defs>
<clipPath id="clip0_211_10488">
<rect width="16" height="20" fill="white"/>
</clipPath>
</defs>
</svg>
