<svg width="58" height="56" viewBox="0 0 58 56" fill="none" xmlns="http://www.w3.org/2000/svg">
<path fill-rule="evenodd" clip-rule="evenodd" d="M57.9874 26.5892C57.6081 11.8407 45.1437 0 29.8098 0C14.6528 0 2.30218 11.5696 1.63219 26.084C1.61955 26.4783 1.6069 26.8849 1.6069 27.2792C1.6069 32.4418 3.08594 37.2471 5.65214 41.3624L0.570312 56L16.1824 51.1578C20.2276 53.314 24.867 54.5584 29.8098 54.5584C45.3839 54.5584 58 42.3481 58 27.2792C58 27.0451 58 26.811 57.9874 26.5892ZM29.8098 50.209C24.9934 50.209 20.5184 48.8167 16.7639 46.4141L7.66211 49.2356L10.6076 40.7217C7.77589 36.9391 6.09459 32.2939 6.09459 27.2792C6.09459 26.5276 6.13251 25.7883 6.221 25.0491C7.384 13.4425 17.5224 4.34939 29.8098 4.34939C42.2489 4.34939 52.4884 13.6766 53.4365 25.4926C53.487 26.084 53.5123 26.6755 53.5123 27.2792C53.5123 39.9208 42.8683 50.209 29.8098 50.209Z" fill="black"/>
<path fill-rule="evenodd" clip-rule="evenodd" d="M42.8862 32.686C42.1909 32.3534 38.7904 30.727 38.1583 30.5052C37.5262 30.2834 37.0585 30.1725 36.6034 30.8502C36.1357 31.5155 34.8083 33.0187 34.4164 33.45C33.9993 33.9058 33.6074 33.9551 32.9121 33.6224C32.2169 33.2898 29.992 32.5998 27.3499 30.308C25.302 28.5461 23.8988 26.3529 23.507 25.6876C23.1151 25.0222 23.469 24.6526 23.8103 24.3199C24.1264 24.0119 24.493 23.5314 24.8596 23.1494C24.9481 23.0385 25.0239 22.9276 25.0998 22.8291C25.2641 22.5826 25.3779 22.3485 25.5422 22.0282C25.7824 21.5846 25.656 21.1903 25.4916 20.8577C25.3147 20.525 23.9368 17.2352 23.3553 15.8922C22.7864 14.5615 22.2049 14.7833 21.7877 14.7833C21.3958 14.7833 20.9281 14.7217 20.473 14.7217C20.0053 14.7217 19.2595 14.8942 18.6274 15.5595C17.9953 16.2249 16.2129 17.8513 16.2129 21.141C16.2129 21.9173 16.3519 22.6812 16.5668 23.4205C17.2621 25.7738 18.7664 27.7206 19.0319 28.0533C19.3732 28.4845 23.8103 35.4583 30.8389 38.1567C37.8675 40.818 37.8675 39.9309 39.1317 39.8077C40.4085 39.7091 43.2275 38.2059 43.7963 36.6288C44.3778 35.0764 44.3778 33.7333 44.2009 33.45C44.0365 33.1912 43.5688 33.0187 42.8862 32.686Z" fill="black"/>
</svg>
