<svg xmlns="http://www.w3.org/2000/svg" xmlns:xlink="http://www.w3.org/1999/xlink" id="&#x421;&#x43B;&#x43E;&#x439;_1" x="0px" y="0px" viewBox="0 0 102.5 102.5" style="enable-background:new 0 0 102.5 102.5;" xml:space="preserve"> <style type="text/css"> .st0{fill:#FFFFFF;stroke:#415B6A;stroke-miterlimit:10;} .st1{fill:none;stroke:#415B6A;stroke-width:0.5;} .st2{fill:none;stroke:#415B6A;stroke-width:0.75;} .st3{fill:#DADADA;stroke:#415B6A;stroke-miterlimit:10;} .st4{fill:none;stroke:#415B6A;} </style> <g> <rect x="4.8" y="4.8" class="st0" width="35.6" height="97.3"></rect> <rect x="4.8" y="4.8" class="st1" width="35.6" height="97.3"></rect> <rect x="0.5" y="0.5" class="st0" width="5.9" height="101.5"></rect> <rect x="0.5" y="0.5" class="st2" width="5.9" height="101.5"></rect> <rect x="36.6" y="0.5" class="st0" width="5.9" height="101.5"></rect> <rect x="36.6" y="0.5" class="st2" width="5.9" height="101.5"></rect> <rect x="6.6" y="4.8" class="st3" width="3.8" height="97.3"></rect> <rect x="6.6" y="4.8" class="st1" width="3.8" height="97.3"></rect> <rect x="15.4" y="4.8" class="st3" width="3.8" height="97.3"></rect> <rect x="15.4" y="4.8" class="st1" width="3.8" height="97.3"></rect> <rect x="23.9" y="4.8" class="st3" width="3.8" height="97.3"></rect> <rect x="23.9" y="4.8" class="st1" width="3.8" height="97.3"></rect> <rect x="32.7" y="4.8" class="st3" width="3.8" height="97.3"></rect> <rect x="32.7" y="4.8" class="st1" width="3.8" height="97.3"></rect> <rect x="64.3" y="4.8" class="st0" width="35.6" height="97.3"></rect> <rect x="64.3" y="4.8" class="st1" width="35.6" height="97.3"></rect> <rect x="60" y="0.5" class="st0" width="5.9" height="101.5"></rect> <rect x="60" y="0.5" class="st2" width="5.9" height="101.5"></rect> <rect x="96.2" y="0.5" class="st0" width="5.9" height="101.5"></rect> <rect x="96.2" y="0.5" class="st2" width="5.9" height="101.5"></rect> <rect x="66.1" y="4.8" class="st3" width="3.8" height="97.3"></rect> <rect x="66.1" y="4.8" class="st1" width="3.8" height="97.3"></rect> <rect x="74.9" y="4.8" class="st3" width="3.8" height="97.3"></rect> <rect x="74.9" y="4.8" class="st1" width="3.8" height="97.3"></rect> <rect x="83.4" y="4.8" class="st3" width="3.8" height="97.3"></rect> <rect x="83.4" y="4.8" class="st1" width="3.8" height="97.3"></rect> <rect x="92.2" y="4.8" class="st3" width="3.8" height="97.3"></rect> <rect x="92.2" y="4.8" class="st1" width="3.8" height="97.3"></rect> <rect x="0.5" y="0.5" class="st0" width="101.5" height="5.9"></rect> <rect x="0.5" y="0.5" class="st2" width="101.5" height="5.9"></rect> <line class="st4" x1="0.2" y1="101.8" x2="102.3" y2="101.8"></line> </g> </svg>