<svg xmlns="http://www.w3.org/2000/svg" xmlns:xlink="http://www.w3.org/1999/xlink" id="&#x421;&#x43B;&#x43E;&#x439;_1" x="0px" y="0px" viewBox="0 0 64 102.3" style="enable-background:new 0 0 64 102.3;" xml:space="preserve"> <style type="text/css"> .st0{fill:#FFFFFF;} .st1{fill:none;stroke:#415B6A;stroke-width:0.5;} .st2{fill:none;stroke:#415B6A;stroke-width:0.75;} .st3{fill:#DADADA;} .st4{fill:none;stroke:#415B6A;} </style> <g> <rect x="4.6" y="4.6" class="st0" width="35.6" height="97.3"></rect> <rect x="4.6" y="4.6" class="st1" width="35.6" height="97.3"></rect> <rect x="0.4" y="0.4" class="st0" width="5.9" height="101.5"></rect> <rect x="0.4" y="0.4" class="st2" width="5.9" height="101.5"></rect> <rect x="36.5" y="0.4" class="st0" width="5.9" height="101.5"></rect> <rect x="36.5" y="0.4" class="st2" width="5.9" height="101.5"></rect> <rect x="59.9" y="0.4" class="st0" width="3.8" height="101.5"></rect> <rect x="59.9" y="0.4" class="st2" width="3.8" height="101.5"></rect> <rect x="6.5" y="4.6" class="st3" width="3.8" height="97.3"></rect> <rect x="6.5" y="4.6" class="st1" width="3.8" height="97.3"></rect> <rect x="15.3" y="4.6" class="st3" width="3.8" height="97.3"></rect> <rect x="15.3" y="4.6" class="st1" width="3.8" height="97.3"></rect> <rect x="23.8" y="4.6" class="st3" width="3.8" height="97.3"></rect> <rect x="23.8" y="4.6" class="st1" width="3.8" height="97.3"></rect> <rect x="32.5" y="4.6" class="st3" width="3.8" height="97.3"></rect> <rect x="32.5" y="4.6" class="st1" width="3.8" height="97.3"></rect> <rect x="0.4" y="0.4" class="st0" width="63.3" height="5.9"></rect> <rect x="0.4" y="0.4" class="st2" width="63.3" height="5.9"></rect> <line class="st4" x1="0.1" y1="101.7" x2="63.9" y2="101.7"></line> </g> </svg>