<svg xmlns="http://www.w3.org/2000/svg" xmlns:xlink="http://www.w3.org/1999/xlink" id="&#x421;&#x43B;&#x43E;&#x439;_1" x="0px" y="0px" viewBox="0 0 102.8 102.8" style="enable-background:new 0 0 102.8 102.8;" xml:space="preserve"> <style type="text/css"> .st0{fill:#FFFFFF;stroke:#415B6A;stroke-miterlimit:10;} .st1{fill:none;stroke:#415B6A;stroke-width:0.75;} .st2{fill:#DADADA;stroke:#415B6A;stroke-miterlimit:10;} .st3{fill:none;stroke:#415B6A;stroke-width:0.5;} </style> <g> <rect x="4.6" y="4.6" class="st0" width="93.5" height="51"></rect> <polygon class="st0" points="0.9,7.3 101.9,7.3 102.3,7.3 102.3,7 102.3,0.9 102.3,0.5 101.9,0.5 0.9,0.5 0.5,0.5 0.5,0.9 0.5,7 0.5,7.3 "></polygon> <polygon class="st1" points="0.9,7.3 101.9,7.3 102.3,7.3 102.3,7 102.3,0.9 102.3,0.5 101.9,0.5 0.9,0.5 0.5,0.5 0.5,0.9 0.5,7 0.5,7.3 "></polygon> <polygon class="st0" points="0.9,59.8 101.9,59.8 102.3,59.8 102.3,59.4 102.3,53.3 102.3,52.9 101.9,52.9 0.9,52.9 0.5,52.9 0.5,53.3 0.5,59.4 0.5,59.8 "></polygon> <polygon class="st1" points="0.9,59.8 101.9,59.8 102.3,59.8 102.3,59.4 102.3,53.3 102.3,52.9 101.9,52.9 0.9,52.9 0.5,52.9 0.5,53.3 0.5,59.4 0.5,59.8 "></polygon> <rect x="7" y="7" class="st2" width="88.8" height="3.8"></rect> <rect x="7" y="7" class="st3" width="88.8" height="3.8"></rect> <rect x="7" y="15.5" class="st2" width="88.8" height="3.8"></rect> <rect x="7" y="15.5" class="st3" width="88.8" height="3.8"></rect> <rect x="7" y="24" class="st2" width="88.8" height="3.8"></rect> <rect x="7" y="24" class="st3" width="88.8" height="3.8"></rect> <rect x="7" y="32.5" class="st2" width="88.8" height="3.8"></rect> <rect x="7" y="32.5" class="st3" width="88.8" height="3.8"></rect> <rect x="7" y="41" class="st2" width="88.8" height="3.8"></rect> <rect x="7" y="41" class="st3" width="88.8" height="3.8"></rect> <rect x="7" y="49.5" class="st2" width="88.8" height="3.8"></rect> <rect x="7" y="49.5" class="st3" width="88.8" height="3.8"></rect> <polygon class="st0" points="0.5,0.9 0.5,101.9 0.5,102.3 0.9,102.3 7,102.3 7.3,102.3 7.3,101.9 7.3,0.9 7.3,0.5 7,0.5 0.9,0.5 0.5,0.5 "></polygon> <polygon class="st1" points="0.5,0.9 0.5,101.9 0.5,102.3 0.9,102.3 7,102.3 7.3,102.3 7.3,101.9 7.3,0.9 7.3,0.5 7,0.5 0.9,0.5 0.5,0.5 "></polygon> <polygon class="st0" points="95.5,0.9 95.5,101.9 95.5,102.3 95.8,102.3 101.9,102.3 102.3,102.3 102.3,101.9 102.3,0.9 102.3,0.5 101.9,0.5 95.8,0.5 95.5,0.5 "></polygon> <polygon class="st1" points="95.5,0.9 95.5,101.9 95.5,102.3 95.8,102.3 101.9,102.3 102.3,102.3 102.3,101.9 102.3,0.9 102.3,0.5 101.9,0.5 95.8,0.5 95.5,0.5 "></polygon> </g> </svg>